<svg width="50" height="12" viewBox="0 0 50 12" fill="none" xmlns="http://www.w3.org/2000/svg">
<path d="M12.272 4.352C12.272 4.128 12.1707 3.91467 11.968 3.712C11.776 3.50933 11.472 3.408 11.056 3.408H4.784C4.4 3.408 4.07467 3.54133 3.808 3.808C3.54133 4.07467 3.408 4.4 3.408 4.784V6.736C3.408 7.12 3.54133 7.44533 3.808 7.712C4.07467 7.97867 4.4 8.112 4.784 8.112H11.056C11.2267 8.112 11.3867 8.08 11.536 8.016C11.6853 7.952 11.8133 7.872 11.92 7.776C12.0267 7.68 12.112 7.57333 12.176 7.456C12.24 7.328 12.272 7.20533 12.272 7.088H15.68V7.408C15.68 7.90933 15.5893 8.40533 15.408 8.896C15.2267 9.38667 14.9707 9.82933 14.64 10.224C14.32 10.608 13.9307 10.9227 13.472 11.168C13.0133 11.4027 12.5067 11.52 11.952 11.52H3.584C3.09333 11.52 2.62933 11.4293 2.192 11.248C1.75467 11.056 1.37067 10.8 1.04 10.48C0.72 10.1493 0.464 9.76533 0.272 9.328C0.0906667 8.89067 0 8.42667 0 7.936V3.584C0 3.08267 0.0906667 2.61867 0.272 2.192C0.464 1.75467 0.72 1.376 1.04 1.056C1.37067 0.725333 1.75467 0.469333 2.192 0.288C2.62933 0.096 3.09333 0 3.584 0H11.952C12.5067 0 13.0133 0.122667 13.472 0.368C13.9307 0.602667 14.32 0.912 14.64 1.296C14.9707 1.68 15.2267 2.112 15.408 2.592C15.5893 3.072 15.68 3.552 15.68 4.032V4.352H12.272Z" fill="#202020"/>
<path d="M29.2408 4.032C29.2408 3.808 29.1394 3.648 28.9368 3.552C28.7448 3.456 28.4408 3.408 28.0248 3.408H20.9368C20.7661 3.408 20.6114 3.44 20.4727 3.504C20.3341 3.568 20.2647 3.66933 20.2647 3.808C20.2647 3.94667 20.3341 4.05333 20.4727 4.128C20.6114 4.20267 20.7661 4.24 20.9368 4.24H29.0168C29.5287 4.24 30.0034 4.33067 30.4408 4.512C30.8781 4.69333 31.2621 4.94933 31.5928 5.28C31.9234 5.61067 32.1794 6.00533 32.3608 6.464C32.5528 6.912 32.6488 7.40267 32.6488 7.936C32.6488 8.42667 32.5528 8.89067 32.3608 9.328C32.1794 9.76533 31.9234 10.1493 31.5928 10.48C31.2728 10.8 30.8941 11.056 30.4568 11.248C30.0301 11.4293 29.5661 11.52 29.0648 11.52H20.6968C20.1421 11.52 19.6354 11.4027 19.1768 11.168C18.7288 10.9227 18.3394 10.608 18.0088 10.224C17.6781 9.84 17.4221 9.408 17.2407 8.928C17.0594 8.448 16.9688 7.968 16.9688 7.488H20.3768C20.3768 7.712 20.4728 7.872 20.6648 7.968C20.8674 8.064 21.1768 8.112 21.5928 8.112H28.4568C28.5421 8.112 28.6327 8.10667 28.7288 8.096C28.8248 8.08533 28.9154 8.06933 29.0008 8.048C29.0861 8.02667 29.1554 7.98933 29.2088 7.936C29.2728 7.88267 29.3048 7.81867 29.3048 7.744C29.3048 7.59467 29.2141 7.49333 29.0328 7.44C28.8621 7.38667 28.6701 7.36 28.4568 7.36H20.5527C20.0621 7.36 19.5981 7.264 19.1607 7.072C18.7234 6.88 18.3394 6.61867 18.0088 6.288C17.6888 5.94667 17.4327 5.54667 17.2407 5.088C17.0594 4.62933 16.9688 4.128 16.9688 3.584C16.9688 3.08267 17.0594 2.61867 17.2407 2.192C17.4327 1.75467 17.6888 1.376 18.0088 1.056C18.3394 0.725333 18.7234 0.469333 19.1607 0.288C19.5981 0.096 20.0621 0 20.5527 0H28.9208C29.4754 0 29.9821 0.122667 30.4408 0.368C30.8994 0.602667 31.2888 0.912 31.6088 1.296C31.9394 1.68 32.1954 2.112 32.3768 2.592C32.5581 3.072 32.6488 3.552 32.6488 4.032H29.2408Z" fill="#202020"/>
<path d="M46.0376 4.032C46.0376 3.808 45.9363 3.648 45.7336 3.552C45.5416 3.456 45.2376 3.408 44.8216 3.408H37.7336C37.563 3.408 37.4083 3.44 37.2696 3.504C37.131 3.568 37.0616 3.66933 37.0616 3.808C37.0616 3.94667 37.131 4.05333 37.2696 4.128C37.4083 4.20267 37.563 4.24 37.7336 4.24H45.8136C46.3256 4.24 46.8003 4.33067 47.2376 4.512C47.675 4.69333 48.059 4.94933 48.3896 5.28C48.7203 5.61067 48.9763 6.00533 49.1576 6.464C49.3496 6.912 49.4456 7.40267 49.4456 7.936C49.4456 8.42667 49.3496 8.89067 49.1576 9.328C48.9763 9.76533 48.7203 10.1493 48.3896 10.48C48.0696 10.8 47.691 11.056 47.2536 11.248C46.827 11.4293 46.363 11.52 45.8616 11.52H37.4936C36.939 11.52 36.4323 11.4027 35.9736 11.168C35.5256 10.9227 35.1363 10.608 34.8056 10.224C34.475 9.84 34.219 9.408 34.0376 8.928C33.8563 8.448 33.7656 7.968 33.7656 7.488H37.1736C37.1736 7.712 37.2696 7.872 37.4616 7.968C37.6643 8.064 37.9736 8.112 38.3896 8.112H45.2536C45.339 8.112 45.4296 8.10667 45.5256 8.096C45.6216 8.08533 45.7123 8.06933 45.7976 8.048C45.883 8.02667 45.9523 7.98933 46.0056 7.936C46.0696 7.88267 46.1016 7.81867 46.1016 7.744C46.1016 7.59467 46.011 7.49333 45.8296 7.44C45.659 7.38667 45.467 7.36 45.2536 7.36H37.3496C36.859 7.36 36.395 7.264 35.9576 7.072C35.5203 6.88 35.1363 6.61867 34.8056 6.288C34.4856 5.94667 34.2296 5.54667 34.0376 5.088C33.8563 4.62933 33.7656 4.128 33.7656 3.584C33.7656 3.08267 33.8563 2.61867 34.0376 2.192C34.2296 1.75467 34.4856 1.376 34.8056 1.056C35.1363 0.725333 35.5203 0.469333 35.9576 0.288C36.395 0.096 36.859 0 37.3496 0H45.7176C46.2723 0 46.779 0.122667 47.2376 0.368C47.6963 0.602667 48.0856 0.912 48.4056 1.296C48.7363 1.68 48.9923 2.112 49.1736 2.592C49.355 3.072 49.4456 3.552 49.4456 4.032H46.0376Z" fill="#202020"/>
</svg>
