<svg width="415" height="109" viewBox="0 0 415 109" fill="none" xmlns="http://www.w3.org/2000/svg">
<g clip-path="url(#clip0_2442_2138)">
<path d="M11.7035 105.434C4.99424 105.434 0 100.554 0 93.9981V17.8496C0 11.299 4.99424 6.41406 11.7035 6.41406H15.5596C39.824 6.41406 51.8133 24.9637 51.8133 55.9238C51.8133 86.8839 39.824 105.434 15.5596 105.434H11.7035ZM19.8366 87.7218H19.977C27.5437 87.7218 31.9662 75.8699 31.9662 55.9238C31.9662 35.9777 27.5437 24.1259 19.977 24.1259H19.8366V87.7218Z" fill="white"/>
<path d="M92.7768 80.7494C96.9135 80.7494 101.055 83.6794 101.055 88.5593C101.055 89.3971 100.915 90.5143 100.484 91.6263C97.059 102.087 90.064 106.83 81.0733 106.83C65.0876 106.83 57.0947 94.4192 57.0947 69.1768C57.0947 43.9345 64.8018 31.1025 80.3613 31.1025C94.7776 31.1025 102.77 40.0295 103.197 65.409C103.337 71.406 99.7718 74.6153 94.0604 74.6153H76.5052C76.5052 85.6344 77.9344 91.0728 81.2136 91.0728C82.9286 91.0728 84.0667 89.8186 84.9242 86.7515C86.2079 82.5673 89.4923 80.7545 92.7768 80.7545V80.7494ZM76.5052 63.454H85.2101C84.4981 50.9014 83.0689 46.4379 80.3561 46.4379C77.6433 46.4379 76.5 51.4599 76.5 63.454H76.5052Z" fill="white"/>
<path d="M109.188 9.48557C109.188 3.07215 114.042 0 119.037 0C124.031 0 128.744 3.06707 128.744 9.48557V96.6482C128.744 102.924 123.891 106.134 119.037 106.134C114.183 106.134 109.188 102.924 109.188 96.6482V9.48557Z" fill="white"/>
<path d="M135.017 14.0865C135.017 8.08946 140.156 3.34668 146.294 3.34668C152.431 3.34668 157.571 8.08946 157.571 14.0865C157.571 20.0835 152.577 24.8263 146.294 24.8263C140.011 24.8263 135.017 20.0835 135.017 14.0865ZM136.446 41.2839C136.446 34.8705 141.3 31.7983 146.294 31.7983C151.288 31.7983 156.002 34.8654 156.002 41.2839V96.6485C156.002 102.925 151.148 106.134 146.294 106.134C141.44 106.134 136.446 102.925 136.446 96.6485V41.2839Z" fill="white"/>
<path d="M267.604 15.4205C267.604 9.42345 272.743 4.68066 278.881 4.68066C285.018 4.68066 290.158 9.42345 290.158 15.4205C290.158 21.4175 285.164 26.1603 278.881 26.1603C272.598 26.1603 267.604 21.4175 267.604 15.4205ZM269.033 42.6179C269.033 36.2044 273.887 33.1323 278.881 33.1323C283.875 33.1323 288.589 36.1994 288.589 42.6179V97.9825C288.589 104.259 283.735 107.468 278.881 107.468C274.027 107.468 269.033 104.259 269.033 97.9825V42.6179Z" fill="white"/>
<path d="M342.678 42.6119V97.9766C342.678 104.253 337.825 107.462 332.971 107.462C328.117 107.462 323.122 104.253 323.122 97.9766V94.7673C320.696 102.856 316.699 108.158 310.276 108.158C300.142 108.158 295.147 94.9095 295.147 69.3878C295.147 43.8662 300.713 32.9893 311.991 32.9893C317.416 32.9893 321.127 37.5899 323.122 43.4498V42.6119C323.122 36.1985 327.976 33.1264 332.971 33.1264C337.965 33.1264 342.678 36.1934 342.678 42.6119ZM323.122 70.3628C323.122 55.581 321.979 49.721 319.126 49.721C315.987 49.721 314.844 55.581 314.844 70.3628C314.844 85.1446 315.987 91.0046 319.126 91.0046C321.979 91.0046 323.122 85.1446 323.122 70.3628Z" fill="white"/>
<path d="M357.38 98.5384L349.673 42.8945C349.673 42.4781 349.532 41.9196 349.532 41.4981C349.532 36.1968 354.241 33.2719 358.523 33.2719C362.519 33.2719 366.516 35.6433 367.087 40.9446C368.943 61.1649 369.514 67.5834 369.941 84.041C370.367 69.5384 370.938 63.1199 373.225 41.5032C373.651 36.7604 377.793 33.1348 382.647 33.1348C387.501 33.1348 391.783 36.7604 392.209 41.5032C394.065 60.6114 395.208 72.184 395.494 83.6195C396.206 66.187 396.777 55.1679 398.207 40.6653C398.778 35.5062 402.489 33.1348 406.485 33.1348C410.908 33.1348 415.762 36.4811 414.904 42.4782L407.052 98.5435C406.34 103.566 402.057 107.608 396.346 107.608C390.635 107.608 386.212 103.423 385.64 98.2642C383.073 76.0889 382.216 67.1619 382.216 58.6564C381.218 73.8597 380.646 82.5024 378.505 98.5435C377.793 103.845 373.079 107.608 367.945 107.608C362.81 107.608 358.097 103.703 357.385 98.5435L357.38 98.5384Z" fill="white"/>
<path d="M260.48 11.1582V101.53C260.48 104.084 257.866 106.456 254.982 105.719C252.965 105.201 251.63 103.317 251.63 101.281C251.63 46.922 251.63 29.5758 252.331 21.1769C252.331 21.1465 252.295 21.1414 252.279 21.1617L218.655 78.6591C217.943 80.0555 216.8 80.7512 215.656 80.7512C214.513 80.7512 213.515 80.0555 212.658 78.6591L179.174 21.0195C179.174 21.0195 179.122 21.0043 179.122 21.0348C179.689 29.4235 179.829 44.6065 179.829 101.53C179.829 104.084 177.21 106.456 174.331 105.714C172.314 105.196 170.979 103.317 170.979 101.281V11.3816C170.979 8.70048 172.974 6.30878 175.708 6.02949C177.802 5.81622 179.6 6.84196 180.541 8.37041L215.63 68.3001C215.63 68.3001 215.667 68.3153 215.677 68.3001L250.767 8.37041C251.624 6.83688 253.48 5.99902 255.189 5.99902C258.043 5.99902 260.469 8.37041 260.469 11.1582H260.48Z" fill="#B71375"/>
<path d="M185.806 98.5638L182.704 41.295C182.574 38.9388 185.349 38.0197 186.367 40.0813L205.648 79.2626C206.074 80.1309 205.939 81.2227 205.315 81.9234L189.137 100.006C187.942 101.341 185.915 100.463 185.811 98.5638H185.806Z" fill="#8B1874"/>
<path d="M245.237 98.5638L248.34 41.295C248.47 38.9388 245.694 38.0197 244.676 40.0813L225.395 79.2626C224.969 80.1309 225.104 81.2227 225.728 81.9234L241.906 100.006C243.101 101.341 245.128 100.463 245.232 98.5638H245.237Z" fill="#8B1874"/>
</g>
<defs>
<clipPath id="clip0_2442_2138">
<rect width="415" height="108.165" fill="white"/>
</clipPath>
</defs>
</svg>
