<svg width="43" height="16" viewBox="0 0 43 16" fill="none" xmlns="http://www.w3.org/2000/svg">
<path d="M7.224 0L20.559 0.0419995L20.58 10.416C20.58 11.06 20.454 11.669 20.202 12.243C19.964 12.817 19.628 13.321 19.194 13.755C18.774 14.175 18.277 14.511 17.703 14.763C17.143 15.001 16.534 15.12 15.876 15.12H4.893C4.165 15.12 3.5 14.966 2.898 14.658C2.31 14.336 1.799 13.923 1.365 13.419C0.931 12.901 0.595 12.32 0.357 11.676C0.119 11.032 0 10.381 0 9.723V8.841H4.473C4.473 9.079 4.515 9.31 4.599 9.534C4.683 9.744 4.795 9.933 4.935 10.101C5.075 10.269 5.243 10.402 5.439 10.5C5.635 10.598 5.845 10.647 6.069 10.647H14.301C14.805 10.647 15.232 10.472 15.582 10.122C15.932 9.772 16.107 9.345 16.107 8.841V4.473H7.224V0Z" fill="#202020"/>
<path d="M38.1529 5.292C38.1529 4.998 38.0199 4.788 37.7539 4.662C37.5019 4.536 37.1029 4.473 36.5569 4.473H27.2539C27.0299 4.473 26.8269 4.515 26.6449 4.599C26.4629 4.683 26.3719 4.816 26.3719 4.998C26.3719 5.18 26.4629 5.32 26.6449 5.418C26.8269 5.516 27.0299 5.565 27.2539 5.565H37.8589C38.5309 5.565 39.1539 5.684 39.7279 5.922C40.3019 6.16 40.8059 6.496 41.2399 6.93C41.6739 7.364 42.0099 7.882 42.2479 8.484C42.4999 9.072 42.6259 9.716 42.6259 10.416C42.6259 11.06 42.4999 11.669 42.2479 12.243C42.0099 12.817 41.6739 13.321 41.2399 13.755C40.8199 14.175 40.3229 14.511 39.7489 14.763C39.1889 15.001 38.5799 15.12 37.9219 15.12H26.9389C26.2109 15.12 25.5459 14.966 24.9439 14.658C24.3559 14.336 23.8449 13.923 23.4109 13.419C22.9769 12.915 22.6409 12.348 22.4029 11.718C22.1649 11.088 22.0459 10.458 22.0459 9.828H26.5189C26.5189 10.122 26.6449 10.332 26.8969 10.458C27.1629 10.584 27.5689 10.647 28.1149 10.647H37.1239C37.2359 10.647 37.3549 10.64 37.4809 10.626C37.6069 10.612 37.7259 10.591 37.8379 10.563C37.9499 10.535 38.0409 10.486 38.1109 10.416C38.1949 10.346 38.2369 10.262 38.2369 10.164C38.2369 9.968 38.1179 9.835 37.8799 9.765C37.6559 9.695 37.4039 9.66 37.1239 9.66H26.7499C26.1059 9.66 25.4969 9.534 24.9229 9.282C24.3489 9.03 23.8449 8.687 23.4109 8.253C22.9909 7.805 22.6549 7.28 22.4029 6.678C22.1649 6.076 22.0459 5.418 22.0459 4.704C22.0459 4.046 22.1649 3.437 22.4029 2.877C22.6549 2.303 22.9909 1.806 23.4109 1.386C23.8449 0.951999 24.3489 0.616 24.9229 0.378C25.4969 0.126 26.1059 0 26.7499 0H37.7329C38.4609 0 39.1259 0.161 39.7279 0.483C40.3299 0.791 40.8409 1.197 41.2609 1.701C41.6949 2.205 42.0309 2.772 42.2689 3.402C42.5069 4.032 42.6259 4.662 42.6259 5.292H38.1529Z" fill="#202020"/>
</svg>
