<svg width="48" height="28" viewBox="0 0 48 28" fill="none" xmlns="http://www.w3.org/2000/svg">
<path d="M23.2481 1.90735e-05V11.52H19.8401V5.28002L15.1361 11.52H15.0401L10.3521 5.29602V11.52H6.94407V1.90735e-05H10.8961L15.1201 5.55202L19.3281 1.90735e-05H23.2481ZM33.1149 4.24002L36.7789 1.90735e-05H41.3229L34.6189 7.68002H34.5389V11.52H31.1309V7.68002H31.0349L24.2189 1.90735e-05H28.7949L32.5229 4.24002H33.1149ZM12.2722 18.032C12.2722 17.808 12.1709 17.648 11.9682 17.552C11.7762 17.456 11.4722 17.408 11.0562 17.408H3.9682C3.79753 17.408 3.64286 17.44 3.5042 17.504C3.36553 17.568 3.2962 17.6694 3.2962 17.808C3.2962 17.9467 3.36553 18.0534 3.5042 18.128C3.64286 18.2027 3.79753 18.24 3.9682 18.24H12.0482C12.5602 18.24 13.0349 18.3307 13.4722 18.512C13.9095 18.6934 14.2935 18.9494 14.6242 19.28C14.9549 19.6107 15.2109 20.0054 15.3922 20.464C15.5842 20.912 15.6802 21.4027 15.6802 21.936C15.6802 22.4267 15.5842 22.8907 15.3922 23.328C15.2109 23.7654 14.9549 24.1494 14.6242 24.48C14.3042 24.8 13.9255 25.056 13.4882 25.248C13.0615 25.4294 12.5975 25.52 12.0962 25.52H3.7282C3.17353 25.52 2.66686 25.4027 2.2082 25.168C1.7602 24.9227 1.37086 24.608 1.0402 24.224C0.709529 23.84 0.453529 23.408 0.272195 22.928C0.090862 22.448 0.000195324 21.968 0.000195324 21.488H3.4082C3.4082 21.712 3.5042 21.872 3.6962 21.968C3.89886 22.064 4.2082 22.112 4.6242 22.112H11.4882C11.5735 22.112 11.6642 22.1067 11.7602 22.096C11.8562 22.0854 11.9469 22.0694 12.0322 22.048C12.1175 22.0267 12.1869 21.9894 12.2402 21.936C12.3042 21.8827 12.3362 21.8187 12.3362 21.744C12.3362 21.5947 12.2455 21.4934 12.0642 21.44C11.8935 21.3867 11.7015 21.36 11.4882 21.36H3.5842C3.09353 21.36 2.62953 21.264 2.1922 21.072C1.75486 20.88 1.37086 20.6187 1.0402 20.288C0.720195 19.9467 0.464195 19.5467 0.272195 19.088C0.090862 18.6294 0.000195324 18.128 0.000195324 17.584C0.000195324 17.0827 0.090862 16.6187 0.272195 16.192C0.464195 15.7547 0.720195 15.376 1.0402 15.056C1.37086 14.7254 1.75486 14.4694 2.1922 14.288C2.62953 14.096 3.09353 14 3.5842 14H11.9522C12.5069 14 13.0135 14.1227 13.4722 14.368C13.9309 14.6027 14.3202 14.912 14.6402 15.296C14.9709 15.68 15.2269 16.112 15.4082 16.592C15.5895 17.072 15.6802 17.552 15.6802 18.032H12.2722ZM25.7411 27.312L24.8291 25.52H20.3651C19.8744 25.52 19.4104 25.4294 18.9731 25.248C18.5464 25.056 18.1677 24.8 17.8371 24.48C17.5171 24.1494 17.2611 23.7707 17.0691 23.344C16.8877 22.9067 16.7971 22.4427 16.7971 21.952V17.568C16.7971 17.0774 16.8877 16.6187 17.0691 16.192C17.2611 15.7547 17.5171 15.376 17.8371 15.056C18.1677 14.7254 18.5464 14.4694 18.9731 14.288C19.4104 14.096 19.8744 14 20.3651 14H28.3971C28.8877 14 29.3464 14.096 29.7731 14.288C30.2104 14.4694 30.5891 14.7254 30.9091 15.056C31.2397 15.376 31.4957 15.7547 31.6771 16.192C31.8691 16.6187 31.9651 17.0774 31.9651 17.568V21.952C31.9651 22.4214 31.8797 22.864 31.7091 23.28C31.5384 23.696 31.3037 24.064 31.0051 24.384C30.7064 24.704 30.3544 24.9654 29.9491 25.168C29.5544 25.36 29.1224 25.472 28.6531 25.504L29.5651 27.312H25.7411ZM28.5571 20.736V18.784C28.5571 18.4 28.4237 18.0747 28.1571 17.808C27.8904 17.5414 27.5651 17.408 27.1811 17.408H21.5811C21.1971 17.408 20.8717 17.5414 20.6051 17.808C20.3384 18.0747 20.2051 18.4 20.2051 18.784V20.736C20.2051 21.12 20.3384 21.4454 20.6051 21.712C20.8717 21.9787 21.1971 22.112 21.5811 22.112H23.1171L22.2371 20.368H26.0611L26.9411 22.112H27.1811C27.5651 22.112 27.8904 21.9787 28.1571 21.712C28.4237 21.4454 28.5571 21.12 28.5571 20.736ZM33.4224 25.488L33.4064 14H36.8144V22.112H47.9984V25.52L33.4224 25.488Z" fill="#202020"/>
</svg>
