<svg width="70" height="66" viewBox="0 0 70 66" fill="none" xmlns="http://www.w3.org/2000/svg">
<mask id="mask0_2223_5227" style="mask-type:alpha" maskUnits="userSpaceOnUse" x="0" y="0" width="70" height="66">
<path d="M52.5117 3.34473V3.34985H52.5168L52.5474 3.35497L52.5117 3.34473Z" fill="black"/>
<path d="M64.7646 15.9484C64.0859 14.9451 61.8736 14.7254 61.049 15.609C58.1127 18.7687 56.0815 29.0515 55.272 31.8219C55.1563 32.2212 54.8094 32.5058 54.3971 32.5557C43.6524 33.8735 44.9396 25.3327 41.8072 11.7704C41.8072 11.7704 41.596 0.484192 34.8335 0H34.7832C28.8452 0.0549084 27.6033 11.7704 27.6033 11.7704C24.4709 25.3327 25.7581 33.8735 15.0134 32.5557C14.6011 32.5058 14.2542 32.2212 14.1385 31.8219C13.329 29.0515 11.2978 18.7687 8.36146 15.609C7.53688 14.7204 5.32462 14.9451 4.64585 15.9484C2.96652 18.4243 -1.90051 23.97 0.799479 41.4858C0.930205 42.3343 0.990528 43.1929 0.975444 44.0515C0.905053 47.92 2.01122 60.6887 19.8553 60.1596C20.2223 61.2528 20.6145 63.7486 22.9475 64.2977C25.2603 64.8368 28.8653 66.1197 34.7128 65.9899C40.5603 66.1197 44.1653 64.8368 46.4781 64.2977C48.8111 63.7536 49.2033 61.2528 49.5703 60.1596C67.1831 60.6837 68.4903 48.2395 68.4501 44.2012C68.4401 43.2378 68.5054 42.2794 68.6512 41.326C71.2959 23.9351 66.454 18.4143 64.7797 15.9434L64.7646 15.9484ZM8.92962 47.8851C6.96873 49.153 4.8721 47.0714 6.14919 45.1247C6.22964 45.0049 6.33521 44.9001 6.45085 44.8252C8.41174 43.5573 10.5034 45.6388 9.23131 47.5856C9.15086 47.7054 9.05028 47.8102 8.92962 47.8851ZM10.8101 40.6322C12.7709 39.3643 14.8676 41.4458 13.5905 43.3926C13.5101 43.5124 13.4095 43.6172 13.2888 43.6921C11.328 44.96 9.2313 42.8834 10.5084 40.9317C10.5888 40.8119 10.6944 40.7071 10.8101 40.6322ZM13.4547 52.2378C11.4939 53.5057 9.39723 51.4292 10.6743 49.4774C10.7548 49.3576 10.8603 49.2528 10.976 49.1779C12.9369 47.91 15.0335 49.9916 13.7564 51.9383C13.676 52.0581 13.5754 52.1629 13.4547 52.2378ZM17.9799 47.8851C16.019 49.153 13.9224 47.0714 15.1994 45.1247C15.2799 45.0049 15.3804 44.9001 15.5011 44.8252C17.462 43.5573 19.5587 45.6338 18.2816 47.5856C18.2011 47.7054 18.0955 47.8102 17.9799 47.8851ZM35.8692 39.0648C33.2497 40.7969 30.429 37.9966 32.1737 35.3959C32.2642 35.2612 32.3849 35.1414 32.5206 35.0515C35.1402 33.3194 37.9608 36.1197 36.2161 38.7204C36.1256 38.8552 36.005 38.975 35.8692 39.0648ZM36.3066 26.1064C33.0586 28.3277 29.519 24.8186 31.7564 21.589C31.8419 21.4642 31.9575 21.3494 32.0832 21.2645C35.3312 19.0432 38.8659 22.5524 36.6335 25.782C36.548 25.9068 36.4323 26.0216 36.3066 26.1064ZM60.3602 47.3759H57.6954V50.0215H54.7742V47.3759H52.1094V44.4758H54.7742V41.8302H57.6954V44.4758H60.3602V47.3759Z" fill="black"/>
</mask>
<g mask="url(#mask0_2223_5227)">
<rect x="-371.969" y="-32" width="479" height="141" fill="url(#paint0_linear_2223_5227)"/>
</g>
<defs>
<linearGradient id="paint0_linear_2223_5227" x1="-371.969" y1="38.5" x2="107.031" y2="38.5" gradientUnits="userSpaceOnUse">
<stop stop-color="#008DDA"/>
<stop offset="1" stop-color="#41C9E2"/>
</linearGradient>
</defs>
</svg>
