<svg width="431" height="78" viewBox="0 0 431 78" fill="none" xmlns="http://www.w3.org/2000/svg">
<mask id="mask0_2432_2106" style="mask-type:alpha" maskUnits="userSpaceOnUse" x="0" y="0" width="431" height="78">
<path d="M410.028 3.95215V3.9582H410.034L410.07 3.96425L410.028 3.95215Z" fill="black"/>
<path d="M424.509 18.8481C423.707 17.6624 421.092 17.4028 420.118 18.447C416.648 22.1812 414.247 34.3337 413.29 37.6078C413.154 38.0797 412.744 38.416 412.256 38.475C399.558 40.0324 401.079 29.9387 397.377 13.9105C397.377 13.9105 397.128 0.572228 389.136 0H389.076C382.059 0.0648918 380.591 13.9105 380.591 13.9105C376.889 29.9387 378.41 40.0324 365.712 38.475C365.225 38.416 364.815 38.0797 364.678 37.6078C363.721 34.3337 361.321 22.1812 357.85 18.447C356.876 17.3969 354.261 17.6624 353.459 18.8481C351.475 21.7742 345.723 28.3282 348.914 49.0287C349.068 50.0316 349.139 51.0463 349.122 52.061C349.038 56.6329 350.346 71.7232 371.434 71.0979C371.868 72.3898 372.331 75.3394 375.089 75.9884C377.822 76.6255 382.082 78.1416 388.993 77.9882C395.904 78.1416 400.164 76.6255 402.898 75.9884C405.655 75.3453 406.118 72.3898 406.552 71.0979C427.367 71.7173 428.912 57.0104 428.865 52.2379C428.853 51.0994 428.93 49.9667 429.102 48.84C432.228 28.2869 426.506 21.7624 424.527 18.8422L424.509 18.8481ZM358.522 56.5916C356.205 58.09 353.727 55.63 355.236 53.3293C355.331 53.1877 355.456 53.0638 355.593 52.9753C357.91 51.4769 360.382 53.9369 358.879 56.2376C358.783 56.3792 358.665 56.5031 358.522 56.5916ZM360.744 48.02C363.062 46.5216 365.54 48.9815 364.03 51.2823C363.935 51.4238 363.816 51.5477 363.674 51.6362C361.356 53.1346 358.878 50.6805 360.388 48.3739C360.483 48.2323 360.608 48.1085 360.744 48.02ZM363.87 61.7357C361.552 63.2342 359.075 60.7801 360.584 58.4735C360.679 58.3319 360.804 58.208 360.94 58.1195C363.258 56.6211 365.736 59.0811 364.226 61.3818C364.131 61.5234 364.012 61.6473 363.87 61.7357ZM369.218 56.5916C366.9 58.09 364.422 55.63 365.932 53.3293C366.027 53.1877 366.146 53.0638 366.288 52.9753C368.606 51.4769 371.084 53.931 369.574 56.2376C369.479 56.3792 369.354 56.5031 369.218 56.5916ZM390.36 46.1676C387.264 48.2146 383.93 44.9052 385.992 41.8316C386.099 41.6724 386.242 41.5308 386.402 41.4246C389.498 39.3776 392.832 42.687 390.77 45.7606C390.663 45.9198 390.52 46.0614 390.36 46.1676ZM390.877 30.8531C387.038 33.4783 382.855 29.3311 385.499 25.5143C385.6 25.3668 385.737 25.2311 385.885 25.1308C389.724 22.5057 393.901 26.6529 391.263 30.4697C391.162 30.6172 391.025 30.7528 390.877 30.8531ZM419.304 55.9899H416.154V59.1165H412.702V55.9899H409.553V52.5624H412.702V49.4358H416.154V52.5624H419.304V55.9899Z" fill="black"/>
<path d="M410.028 3.95215V3.9582H410.034L410.07 3.96425L410.028 3.95215Z" fill="black"/>
<path d="M424.509 18.8481C423.707 17.6624 421.092 17.4028 420.118 18.447C416.648 22.1812 414.247 34.3337 413.29 37.6078C413.154 38.0797 412.744 38.416 412.256 38.475C399.558 40.0324 401.079 29.9387 397.377 13.9105C397.377 13.9105 397.128 0.572228 389.136 0H389.076C382.059 0.0648918 380.591 13.9105 380.591 13.9105C376.889 29.9387 378.41 40.0324 365.712 38.475C365.225 38.416 364.815 38.0797 364.678 37.6078C363.721 34.3337 361.321 22.1812 357.85 18.447C356.876 17.3969 354.261 17.6624 353.459 18.8481C351.475 21.7742 345.723 28.3282 348.914 49.0287C349.068 50.0316 349.139 51.0463 349.122 52.061C349.038 56.6329 350.346 71.7232 371.434 71.0979C371.868 72.3898 372.331 75.3394 375.089 75.9884C377.822 76.6255 382.082 78.1416 388.993 77.9882C395.904 78.1416 400.164 76.6255 402.898 75.9884C405.655 75.3453 406.118 72.3898 406.552 71.0979C427.367 71.7173 428.912 57.0104 428.865 52.2379C428.853 51.0994 428.93 49.9667 429.102 48.84C432.228 28.2869 426.506 21.7624 424.527 18.8422L424.509 18.8481ZM358.522 56.5916C356.205 58.09 353.727 55.63 355.236 53.3293C355.331 53.1877 355.456 53.0638 355.593 52.9753C357.91 51.4769 360.382 53.9369 358.879 56.2376C358.783 56.3792 358.665 56.5031 358.522 56.5916ZM360.744 48.02C363.062 46.5216 365.54 48.9815 364.03 51.2823C363.935 51.4238 363.816 51.5477 363.674 51.6362C361.356 53.1346 358.878 50.6805 360.388 48.3739C360.483 48.2323 360.608 48.1085 360.744 48.02ZM363.87 61.7357C361.552 63.2342 359.075 60.7801 360.584 58.4735C360.679 58.3319 360.804 58.208 360.94 58.1195C363.258 56.6211 365.736 59.0811 364.226 61.3818C364.131 61.5234 364.012 61.6473 363.87 61.7357ZM369.218 56.5916C366.9 58.09 364.422 55.63 365.932 53.3293C366.027 53.1877 366.146 53.0638 366.288 52.9753C368.606 51.4769 371.084 53.931 369.574 56.2376C369.479 56.3792 369.354 56.5031 369.218 56.5916ZM390.36 46.1676C387.264 48.2146 383.93 44.9052 385.992 41.8316C386.099 41.6724 386.242 41.5308 386.402 41.4246C389.498 39.3776 392.832 42.687 390.77 45.7606C390.663 45.9198 390.52 46.0614 390.36 46.1676ZM390.877 30.8531C387.038 33.4783 382.855 29.3311 385.499 25.5143C385.6 25.3668 385.737 25.2311 385.885 25.1308C389.724 22.5057 393.901 26.6529 391.263 30.4697C391.162 30.6172 391.025 30.7528 390.877 30.8531ZM419.304 55.9899H416.154V59.1165H412.702V55.9899H409.553V52.5624H412.702V49.4358H416.154V52.5624H419.304V55.9899Z" fill="black"/>
<path d="M96.6547 55.0109L84.8418 16.8545H97.9798L108.2 51.2177C108.271 51.4241 108.337 51.4949 108.479 51.4949C108.622 51.4949 108.687 51.4241 108.759 51.2177L118.837 16.8545H131.975L120.162 55.0109C118.219 61.3585 114.671 64.5323 108.414 64.5323C102.157 64.5323 98.6156 61.3585 96.6666 55.0109H96.6547Z" fill="black"/>
<path d="M148.297 63.4291C140.377 63.4291 137.174 59.2879 137.174 52.7338V27.5498C137.174 20.9958 140.371 16.8545 148.297 16.8545H172.345V28.2401H150.033V34.452H170.747V45.8375H150.033V52.0495H172.69V63.435H148.291L148.297 63.4291Z" fill="black"/>
<path d="M181.728 63.4292V16.8486H201.396C212.52 16.8486 220.999 22.0223 220.999 32.3047C220.999 38.4458 217.523 43.4838 212.032 45.2064C214.397 46.7225 215.924 49.4184 218.01 53.6246L222.805 63.4233H208.835L204.456 54.657C202.858 51.4832 201.051 50.3092 196.88 50.3092H194.515L194.444 63.4233H181.722L181.728 63.4292ZM194.586 28.5823L194.515 39.0004H201.396C205.151 39.0004 207.79 36.9297 207.79 33.6202C207.79 30.0984 205.145 28.5823 201.533 28.5823H194.58H194.586Z" fill="black"/>
<path d="M237.749 55.0109L225.937 16.8545H239.074L249.295 51.2177C249.366 51.4241 249.432 51.4949 249.574 51.4949C249.717 51.4949 249.782 51.4241 249.853 51.2177L259.931 16.8545H273.069L261.256 55.0109C259.313 61.3585 255.766 64.5323 249.509 64.5323C243.252 64.5323 239.71 61.3585 237.761 55.0109H237.749Z" fill="black"/>
<path d="M291.823 16.8486V63.4292H278.964V16.8486H291.823Z" fill="black"/>
<path d="M313.363 63.4291C305.442 63.4291 302.239 59.2879 302.239 52.7338V27.5498C302.239 20.9958 305.436 16.8545 313.363 16.8545H337.411V28.2401H315.098V34.452H335.812V45.8375H315.098V52.0495H337.755V63.435H313.357L313.363 63.4291Z" fill="black"/>
<path d="M0 39.0001C0 16.8012 16.9112 0.124023 39.6041 0.124023C62.297 0.124023 79.2082 16.8012 79.2082 39.0001C79.2082 61.199 62.297 77.8762 39.6041 77.8762C16.9112 77.8762 0 61.199 0 39.0001ZM58.0721 39.0001C58.0721 27.9567 50.0622 19.45 39.6041 19.45C29.146 19.45 21.136 27.9508 21.136 39.0001C21.136 50.0494 29.146 58.5503 39.6041 58.5503C50.0622 58.5503 58.0721 50.0435 58.0721 39.0001Z" fill="black"/>
<path d="M39.6037 48.4268C44.3359 48.4268 48.1722 44.4149 48.1722 39.4659C48.1722 34.5168 44.3359 30.5049 39.6037 30.5049C34.8714 30.5049 31.0352 34.5168 31.0352 39.4659C31.0352 44.4149 34.8714 48.4268 39.6037 48.4268Z" fill="black"/>
</mask>
<g mask="url(#mask0_2432_2106)">
<rect x="-24" y="-32" width="479" height="141" fill="url(#paint0_linear_2432_2106)"/>
</g>
<defs>
<linearGradient id="paint0_linear_2432_2106" x1="-24" y1="38.5" x2="455" y2="38.5" gradientUnits="userSpaceOnUse">
<stop stop-color="#008DDA"/>
<stop offset="1" stop-color="#41C9E2"/>
</linearGradient>
</defs>
</svg>
