<svg width="47" height="42" viewBox="0 0 47 42" fill="none" xmlns="http://www.w3.org/2000/svg">
<path d="M23.2917 16.7419C25.5233 16.7419 27.3433 18.5619 27.3433 20.8369C27.3433 23.0036 25.5233 24.8452 23.2917 24.8452C21.06 24.8452 19.24 23.0036 19.24 20.8369C19.24 18.5619 21.06 16.7419 23.2917 16.7419ZM13.26 38.1702C14.625 38.9936 17.615 37.7369 21.06 34.4869C19.9333 33.2086 18.8283 31.8219 17.7883 30.3702C16.0425 30.2019 14.3067 29.9416 12.5883 29.5902C11.4833 34.2269 11.895 37.4119 13.26 38.1702ZM14.7983 25.7336L14.17 24.6286C13.9317 25.2569 13.6933 25.8852 13.5417 26.4919C14.1267 26.6219 14.7767 26.7302 15.4483 26.8386L14.7983 25.7336ZM28.9683 24.0869L30.7233 20.8369L28.9683 17.5869C28.3183 16.4386 27.625 15.4202 26.9967 14.4019C25.8267 14.3369 24.5917 14.3369 23.2917 14.3369C21.9917 14.3369 20.7567 14.3369 19.5867 14.4019C18.9583 15.4202 18.265 16.4386 17.615 17.5869L15.86 20.8369L17.615 24.0869C18.265 25.2352 18.9583 26.2536 19.5867 27.2719C20.7567 27.3369 21.9917 27.3369 23.2917 27.3369C24.5917 27.3369 25.8267 27.3369 26.9967 27.2719C27.625 26.2536 28.3183 25.2352 28.9683 24.0869ZM23.2917 9.52691C22.88 10.0036 22.4467 10.5019 22.0133 11.0869H24.57C24.1367 10.5019 23.7033 10.0036 23.2917 9.52691ZM23.2917 32.1469C23.7033 31.6702 24.1367 31.1719 24.57 30.5869H22.0133C22.4467 31.1719 22.88 31.6702 23.2917 32.1469ZM33.3017 3.50357C31.9583 2.68024 28.9683 3.9369 25.5233 7.1869C26.65 8.46524 27.755 9.8519 28.795 11.3036C30.5717 11.4769 32.3267 11.7369 33.995 12.0836C35.1 7.44691 34.6883 4.2619 33.3017 3.50357ZM31.785 15.9402L32.4133 17.0452C32.6517 16.4169 32.89 15.7886 33.0417 15.1819C32.4567 15.0519 31.8067 14.9436 31.135 14.8352L31.785 15.9402ZM34.9267 0.665238C38.1117 2.48524 38.4583 7.27357 37.115 12.8636C42.6183 14.4886 46.5833 17.1752 46.5833 20.8369C46.5833 24.4986 42.6183 27.1852 37.115 28.8102C38.4583 34.4002 38.1117 39.1886 34.9267 41.0086C31.7633 42.8286 27.4517 40.7486 23.2917 36.7836C19.1317 40.7486 14.82 42.8286 11.635 41.0086C8.47167 39.1886 8.125 34.4002 9.46833 28.8102C3.965 27.1852 0 24.4986 0 20.8369C0 17.1752 3.965 14.4886 9.46833 12.8636C8.125 7.27357 8.47167 2.48524 11.635 0.665238C14.82 -1.15476 19.1317 0.925238 23.2917 4.89024C27.4517 0.925238 31.7633 -1.15476 34.9267 0.665238ZM34.2983 20.8369C35.035 22.4619 35.685 24.0869 36.2267 25.7336C40.7767 24.3686 43.3333 22.4186 43.3333 20.8369C43.3333 19.2552 40.7767 17.3052 36.2267 15.9402C35.685 17.5869 35.035 19.2119 34.2983 20.8369ZM12.285 20.8369C11.5483 19.2119 10.8983 17.5869 10.3567 15.9402C5.80667 17.3052 3.25 19.2552 3.25 20.8369C3.25 22.4186 5.80667 24.3686 10.3567 25.7336C10.8983 24.0869 11.5483 22.4619 12.285 20.8369ZM31.785 25.7336L31.135 26.8386C31.8067 26.7302 32.4567 26.6219 33.0417 26.4919C32.89 25.8852 32.6517 25.2569 32.4133 24.6286L31.785 25.7336ZM25.5233 34.4869C28.9683 37.7369 31.9583 38.9936 33.3017 38.1702C34.6883 37.4119 35.1 34.2269 33.995 29.5902C32.3267 29.9369 30.5717 30.1969 28.795 30.3702C27.755 31.8219 26.65 33.2086 25.5233 34.4869ZM14.7983 15.9402L15.4483 14.8352C14.7767 14.9436 14.1267 15.0519 13.5417 15.1819C13.6933 15.7886 13.9317 16.4169 14.17 17.0452L14.7983 15.9402ZM21.06 7.1869C17.615 3.9369 14.625 2.68024 13.26 3.50357C11.895 4.2619 11.4833 7.44691 12.5883 12.0836C14.3067 11.7322 16.0425 11.4719 17.7883 11.3036C18.8283 9.8519 19.9333 8.46524 21.06 7.1869Z" fill="#202020"/>
</svg>
