<svg width="392" height="161" viewBox="0 0 392 161" fill="none" xmlns="http://www.w3.org/2000/svg">
<path d="M302.976 54.0091V49.5002L261.948 49.5002C259.014 49.5002 256.506 48.8629 254.425 47.5921C252.347 46.3177 250.647 44.662 249.326 42.6169C248.005 40.5756 247.05 38.2821 246.462 35.7368C245.877 33.1916 245.583 30.6092 245.583 27.9862V25.904C245.583 22.8216 246.011 19.7357 246.867 16.6532C247.722 13.5671 248.886 10.792 250.353 8.32458C251.82 5.85716 253.546 3.85312 255.528 2.31191C257.51 0.770693 259.649 0 261.948 0L301.361 0C303.267 0 305.054 0.518753 306.718 1.55981C308.381 2.60087 309.836 4.06396 311.084 5.95343C312.333 7.8429 313.311 10.1363 314.021 12.8371C314.728 15.5343 315.083 18.5799 315.083 21.9735V61.6409C315.083 64.6492 314.728 67.4651 314.021 70.0844C313.311 72.7074 312.333 75.0008 311.084 76.9681C309.836 78.9317 308.381 80.4763 306.718 81.5914C305.054 82.7103 303.267 83.2698 301.361 83.2698L261.73 83.2698C259.087 83.2698 256.506 82.7696 253.986 81.7656C251.465 80.7653 249.3 79.1466 247.49 76.9088V57.4806C249.547 60.2555 252.126 62.0669 255.234 62.9153C258.34 63.7637 261.654 64.1861 265.179 64.1861L295.854 64.1861C297.763 64.1861 299.428 63.3377 300.846 61.6409C302.266 59.9478 302.976 57.4028 302.976 54.0091ZM302.976 35.3886V28.101C302.976 26.6376 302.729 25.3449 302.24 24.2298C301.751 23.1109 301.09 22.1661 300.26 21.3955C299.428 20.6249 298.497 20.0469 297.47 19.6616C296.442 19.2763 295.365 19.08 294.242 19.08L266.206 19.08C265.08 19.08 264.003 19.2541 262.976 19.6024C261.948 19.9506 261.043 20.5286 260.26 21.3363C259.478 22.1476 258.854 23.2073 258.389 24.5188C257.923 25.8266 257.693 27.486 257.693 29.4904C257.693 31.9578 258.354 33.5583 259.673 34.2919C260.994 35.0218 263.124 35.3886 266.058 35.3886H302.976Z" fill="#7F009E"/>
<path d="M375.633 83.2698L338.792 83.2698C336.54 83.2698 334.424 82.5954 332.442 81.2468C330.46 79.8946 328.725 78.0462 327.233 75.6936C325.74 73.3448 324.567 70.6067 323.708 67.4835C322.853 64.3603 322.425 61.0261 322.425 57.4806V25.7891C322.425 22.2436 322.853 18.9094 323.708 15.7863C324.567 12.6631 325.74 9.92506 327.233 7.57249C328.725 5.22362 330.46 3.37148 332.442 2.02292C334.424 0.674356 336.54 0 338.792 0L375.633 0C377.885 0 380.001 0.674356 381.983 2.02292C383.965 3.37148 385.7 5.22362 387.192 7.57249C388.685 9.92506 389.858 12.6631 390.717 15.7863C391.572 18.9094 392 22.2436 392 25.7891V57.4806C392 61.0261 391.572 64.3603 390.717 67.4835C389.858 70.6067 388.685 73.3448 387.192 75.6936C385.7 78.0462 383.965 79.8946 381.983 81.2468C380.001 82.5954 377.885 83.2698 375.633 83.2698ZM344.957 64.1861L359.194 19.08L343.121 19.08C341.947 19.08 340.833 19.4283 339.782 20.1211C338.729 20.8176 337.812 21.7624 337.029 22.9553C336.246 24.152 335.635 25.578 335.195 27.2341C334.756 28.8939 334.535 30.6871 334.535 32.6136V50.6561C334.535 52.5827 334.756 54.3574 335.195 55.9764C335.635 57.5954 336.246 59.0219 337.029 60.2556C337.812 61.4893 338.717 62.4522 339.745 63.145C340.772 63.8416 341.898 64.1861 343.121 64.1861H344.957ZM379.89 50.6561V32.8433C379.89 30.9168 379.669 29.105 379.23 27.4082C378.79 25.7114 378.179 24.2483 377.396 23.0146C376.613 21.7809 375.682 20.8176 374.605 20.1211C373.531 19.4283 372.381 19.08 371.156 19.08H369.468L355.231 64.1861L371.377 64.1861C372.55 64.1861 373.665 63.8416 374.716 63.145C375.769 62.4522 376.674 61.4893 377.431 60.2556C378.19 59.0219 378.79 57.5954 379.23 55.9764C379.669 54.3574 379.89 52.5827 379.89 50.6561Z" fill="#7F009E"/>
<path d="M82.4855 55.508L72.0662 100.368C69.7187 110.305 65.7472 117.525 60.1517 122.027C54.5562 126.497 46.4523 128.732 35.8402 128.732C26.3857 128.732 19.2305 127.044 14.3747 123.667C9.51879 120.258 7.09085 115.113 7.09085 108.231C7.09085 106.816 7.20341 105.385 7.42851 103.938C7.65362 102.491 7.89481 101.172 8.15207 99.9826L18.4748 55.508L37.1908 55.508L26.8681 100.031C26.643 100.931 26.45 101.928 26.2892 103.022C26.1606 104.083 26.0963 104.967 26.0963 105.675C26.0963 108.697 26.9967 110.997 28.7976 112.572C30.6306 114.116 33.6534 114.888 37.8661 114.888C41.9502 114.888 45.2464 113.762 47.7547 111.511C50.2952 109.26 52.1122 105.755 53.2055 100.996L63.7695 55.508H82.4855ZM154.552 75.3816C154.552 83.9357 150.998 90.8336 143.891 96.0754C136.817 101.317 126.912 103.938 114.177 103.938L107.135 103.938L101.732 127.333H83.1125L99.7061 55.508L125.513 55.508C130.208 55.508 134.292 55.8295 137.765 56.4727C141.27 57.1159 144.293 58.2253 146.834 59.8011C149.342 61.3768 151.255 63.4349 152.574 65.9754C153.892 68.4837 154.552 71.6191 154.552 75.3816ZM134.774 77.1664C134.774 74.3687 133.762 72.2945 131.736 70.9438C129.71 69.5932 126.703 68.9179 122.715 68.9179H115.238L110.27 90.4316H116.927C122.554 90.4316 126.928 89.29 130.047 87.0068C133.199 84.6914 134.774 81.4113 134.774 77.1664ZM227.004 75.3816C227.004 83.9357 223.45 90.8336 216.343 96.0754C209.269 101.317 199.364 103.938 186.629 103.938L179.587 103.938L174.184 127.333H155.565L172.158 55.508L197.965 55.508C202.66 55.508 206.744 55.8295 210.217 56.4727C213.723 57.1159 216.745 58.2253 219.286 59.8011C221.794 61.3768 223.708 63.4349 225.026 65.9754C226.345 68.4837 227.004 71.6191 227.004 75.3816ZM207.227 77.1664C207.227 74.3687 206.214 72.2945 204.188 70.9438C202.162 69.5932 199.155 68.9179 195.167 68.9179H187.691L182.722 90.4316H189.379C195.007 90.4316 199.38 89.29 202.499 87.0068C205.651 84.6914 207.227 81.4113 207.227 77.1664ZM296.658 55.508L293.523 69.1108H259.998L257.007 81.9419H288.12L284.937 95.593L253.824 95.593L249.627 113.73L283.152 113.73L280.065 127.333L228.017 127.333L244.61 55.508L296.658 55.508ZM367.711 73.5969C367.711 79.3532 365.959 84.193 362.454 88.1162C358.948 92.0395 354.189 94.9981 348.175 96.9919L364.769 127.333H344.075L330.569 100.996L320.15 100.996L314.072 127.333H295.549L312.142 55.508L340.168 55.508C348.947 55.508 355.733 57.0033 360.524 59.994C365.316 62.9525 367.711 67.4868 367.711 73.5969ZM347.741 76.684C347.741 73.7898 346.809 71.7478 344.944 70.5579C343.111 69.3359 340.393 68.7249 336.791 68.7249H327.626L323.14 88.068H332.257C337.177 88.068 340.988 87.0711 343.689 85.0773C346.391 83.0513 347.741 80.2536 347.741 76.684Z" fill="#C3C3C3"/>
</svg>
