<svg width="102" height="41" viewBox="0 0 102 41" fill="none" xmlns="http://www.w3.org/2000/svg">
<path d="M78.387 13.8214V12.6675L67.7722 12.6675C67.0131 12.6675 66.3641 12.5044 65.8258 12.1792C65.2881 11.8531 64.8483 11.4294 64.5065 10.906C64.1646 10.3836 63.9177 9.79672 63.7656 9.14537C63.6141 8.49403 63.5381 7.83316 63.5381 7.16191V6.62907C63.5381 5.84025 63.6488 5.05053 63.8702 4.26171C64.0916 3.47194 64.3927 2.76177 64.7723 2.13033C65.1518 1.4989 65.5983 0.986047 66.1111 0.591637C66.6238 0.197227 67.1773 0 67.7722 0L77.9692 0C78.4625 0 78.9248 0.132754 79.3554 0.39917C79.7855 0.665586 80.162 1.04 80.485 1.52353C80.808 2.00707 81.061 2.59397 81.2447 3.28514C81.4278 3.97535 81.5196 4.75475 81.5196 5.62321V15.7744C81.5196 16.5443 81.4278 17.2649 81.2447 17.9352C81.061 18.6065 80.808 19.1934 80.485 19.6968C80.162 20.1993 79.7855 20.5946 79.3554 20.88C78.9248 21.1663 78.4625 21.3095 77.9692 21.3095L67.7157 21.3095C67.032 21.3095 66.3641 21.1815 65.712 20.9245C65.06 20.6685 64.4998 20.2543 64.0314 19.6817V14.7098C64.5636 15.4199 65.2309 15.8835 66.035 16.1006C66.8386 16.3177 67.6962 16.4258 68.608 16.4258L76.5446 16.4258C77.0385 16.4258 77.4692 16.2087 77.836 15.7744C78.2034 15.3412 78.387 14.6899 78.387 13.8214ZM78.387 9.05626V7.19131C78.387 6.81681 78.3232 6.48599 78.1967 6.20061C78.0701 5.91429 77.8992 5.67251 77.6845 5.4753C77.4692 5.2781 77.2283 5.13018 76.9625 5.03158C76.6967 4.93297 76.4181 4.88274 76.1274 4.88274L68.8738 4.88274C68.5824 4.88274 68.3038 4.92729 68.038 5.01641C67.7722 5.10554 67.5381 5.25346 67.3355 5.46014C67.133 5.66778 66.9718 5.93894 66.8513 6.27457C66.7309 6.60925 66.6713 7.03392 66.6713 7.54684C66.6713 8.17828 66.8422 8.58788 67.1834 8.7756C67.5253 8.96238 68.0764 9.05626 68.8355 9.05626H78.387Z" fill="black"/>
<path d="M97.1852 21.3095L87.6537 21.3095C87.071 21.3095 86.5235 21.1369 86.0108 20.7918C85.498 20.4457 85.0491 19.9727 84.6628 19.3707C84.2766 18.7696 83.9731 18.0689 83.7511 17.2696C83.5297 16.4704 83.4189 15.6171 83.4189 14.7098V6.59967C83.4189 5.69234 83.5297 4.83909 83.7511 4.03984C83.9731 3.24059 84.2766 2.53991 84.6628 1.93787C85.0491 1.33677 85.498 0.862791 86.0108 0.517682C86.5235 0.172574 87.071 0 87.6537 0L97.1852 0C97.7679 0 98.3154 0.172574 98.8281 0.517682C99.3409 0.862791 99.7898 1.33677 100.176 1.93787C100.562 2.53991 100.866 3.24059 101.088 4.03984C101.309 4.83909 101.42 5.69234 101.42 6.59967V14.7098C101.42 15.6171 101.309 16.4704 101.088 17.2696C100.866 18.0689 100.562 18.7696 100.176 19.3707C99.7898 19.9727 99.3409 20.4457 98.8281 20.7918C98.3154 21.1369 97.7679 21.3095 97.1852 21.3095ZM89.2485 16.4258L92.9322 4.88274L88.7735 4.88274C88.47 4.88274 88.1817 4.97187 87.9098 5.14916C87.6373 5.32741 87.4 5.56918 87.1975 5.87447C86.9949 6.18071 86.8368 6.54564 86.723 6.96944C86.6093 7.39419 86.5521 7.8531 86.5521 8.34611V12.9634C86.5521 13.4564 86.6093 13.9105 86.723 14.3249C86.8368 14.7392 86.9949 15.1042 87.1975 15.4199C87.4 15.7357 87.6342 15.9821 87.9 16.1594C88.1658 16.3376 88.4572 16.4258 88.7735 16.4258H89.2485ZM98.2868 12.9634V8.4049C98.2868 7.91189 98.2296 7.44823 98.1158 7.014C98.0021 6.57977 97.844 6.20535 97.6414 5.88963C97.4389 5.57392 97.198 5.32741 96.9194 5.14916C96.6414 4.97187 96.3439 4.88274 96.027 4.88274H95.5903L91.9067 16.4258L96.0842 16.4258C96.3878 16.4258 96.6761 16.3376 96.948 16.1594C97.2205 15.9821 97.4546 15.7357 97.6505 15.4199C97.847 15.1042 98.0021 14.7392 98.1158 14.3249C98.2296 13.9105 98.2868 13.4564 98.2868 12.9634Z" fill="black"/>
<path d="M21.1088 14.8703L18.4424 26.3505C17.8416 28.8934 16.8253 30.741 15.3933 31.8931C13.9614 33.037 11.8876 33.609 9.17182 33.609C6.75233 33.609 4.92126 33.1769 3.6786 32.3128C2.43594 31.4405 1.81461 30.1238 1.81461 28.3626C1.81461 28.0005 1.84342 27.6343 1.90102 27.264C1.95863 26.8937 2.02035 26.5563 2.08619 26.2518L4.72787 14.8703L9.51746 14.8703L6.87578 26.2641C6.81817 26.4945 6.76879 26.7496 6.72764 27.0294C6.69473 27.301 6.67827 27.5273 6.67827 27.7084C6.67827 28.482 6.90869 29.0704 7.36955 29.4736C7.83863 29.8686 8.61221 30.0661 9.69028 30.0661C10.7354 30.0661 11.579 29.7781 12.2209 29.202C12.871 28.626 13.336 27.729 13.6158 26.511L16.3192 14.8703H21.1088ZM39.5511 19.9562C39.5511 22.1452 38.6418 23.9105 36.823 25.2519C35.0126 26.5933 32.4779 27.264 29.219 27.264L27.4167 27.264L26.0341 33.251H21.2692L25.5157 14.8703L32.1199 14.8703C33.3214 14.8703 34.3665 14.9526 35.2553 15.1172C36.1523 15.2818 36.9259 15.5657 37.5761 15.969C38.218 16.3722 38.7076 16.8989 39.045 17.549C39.3824 18.1909 39.5511 18.9933 39.5511 19.9562ZM34.49 20.4129C34.49 19.6969 34.2307 19.1661 33.7123 18.8205C33.1938 18.4748 32.4244 18.302 31.4039 18.302H29.4905L28.2191 23.8076H29.9226C31.3628 23.8076 32.482 23.5154 33.2802 22.9311C34.0867 22.3386 34.49 21.4992 34.49 20.4129ZM58.0923 19.9562C58.0923 22.1452 57.1829 23.9105 55.3642 25.2519C53.5537 26.5933 51.019 27.264 47.7601 27.264L45.9578 27.264L44.5753 33.251H39.8104L44.0568 14.8703L50.661 14.8703C51.8625 14.8703 52.9077 14.9526 53.7965 15.1172C54.6935 15.2818 55.4671 15.5657 56.1172 15.969C56.7591 16.3722 57.2488 16.8989 57.5862 17.549C57.9236 18.1909 58.0923 18.9933 58.0923 19.9562ZM53.0311 20.4129C53.0311 19.6969 52.7719 19.1661 52.2534 18.8205C51.735 18.4748 50.9655 18.302 49.945 18.302H48.0317L46.7602 23.8076H48.4637C49.9039 23.8076 51.0231 23.5154 51.8214 22.9311C52.6279 22.3386 53.0311 21.4992 53.0311 20.4129ZM75.9174 14.8703L75.1151 18.3514H66.5358L65.7704 21.635H73.7325L72.9178 25.1284H64.9557L63.8818 29.7699L72.461 29.7699L71.671 33.251H58.3515L62.5979 14.8703L75.9174 14.8703ZM94.1006 19.4994C94.1006 20.9725 93.6521 22.2111 92.7551 23.2151C91.8581 24.2191 90.6401 24.9762 89.1012 25.4864L93.3476 33.251H88.0519L84.5955 26.511L81.9291 26.511L80.3737 33.251H75.6335L79.88 14.8703L87.052 14.8703C89.2987 14.8703 91.0351 15.253 92.2613 16.0183C93.4875 16.7754 94.1006 17.9358 94.1006 19.4994ZM88.9901 20.2895C88.9901 19.5488 88.7514 19.0262 88.2741 18.7217C87.805 18.409 87.1096 18.2527 86.1879 18.2527H83.8425L82.6945 23.2027H85.0275C86.2867 23.2027 87.2619 22.9476 87.9531 22.4374C88.6444 21.9189 88.9901 21.2029 88.9901 20.2895Z" fill="#C3C3C3"/>
</svg>
