<svg width="102" height="67" viewBox="0 0 102 67" fill="none" xmlns="http://www.w3.org/2000/svg">
<path d="M87.1379 66.0947H0L3.48552 60.8767H90.6235L87.1379 66.0947Z" fill="#F1F4F6"/>
<path d="M81.9603 57.398H12.25L15.7355 52.1799H85.4459L81.9603 57.398Z" fill="#F1F4F6"/>
<path d="M76.6802 48.7014H24.3975L27.883 43.4834H80.1657L76.6802 48.7014Z" fill="#F1F4F6"/>
<path d="M71.4597 40.0049H36.6045L40.09 34.7869H74.9452L71.4597 40.0049Z" fill="#F1F4F6"/>
<path d="M13.9631 0H101.101L97.6155 5.21802H10.4775L13.9631 0Z" fill="#F1F4F6"/>
<path d="M19.1388 8.69678H88.8492L85.3637 13.9148H15.6533L19.1388 8.69678Z" fill="#F1F4F6"/>
<path d="M24.4201 17.3933H76.7029L73.2173 22.6113H20.9346L24.4201 17.3933Z" fill="#F1F4F6"/>
<path d="M29.6398 26.0901H64.495L61.0095 31.3081H26.1543L29.6398 26.0901Z" fill="#F1F4F6"/>
</svg>
