<svg width="419" height="134" viewBox="0 0 419 134" fill="none" xmlns="http://www.w3.org/2000/svg">
<path d="M175.87 133.32H0L7.03479 122.795H182.905L175.87 133.32Z" fill="#F1F4F6"/>
<path d="M165.423 115.778H24.7275L31.7623 105.253H172.458L165.423 115.778Z" fill="#F1F4F6"/>
<path d="M154.765 98.2362H49.2432L56.278 87.7109H161.8L154.765 98.2362Z" fill="#F1F4F6"/>
<path d="M144.228 80.6942H73.8799L80.9147 70.1689H151.263L144.228 80.6942Z" fill="#F1F4F6"/>
<path d="M28.1813 0H204.051L197.016 10.5253H21.1465L28.1813 0Z" fill="#F1F4F6"/>
<path d="M38.6276 17.543H179.323L172.289 28.0683H31.5928L38.6276 17.543Z" fill="#F1F4F6"/>
<path d="M49.2867 35.084H154.809L147.774 45.6093H42.252L49.2867 35.084Z" fill="#F1F4F6"/>
<path d="M59.8239 52.626H130.172L123.137 63.1513H52.7891L59.8239 52.626Z" fill="#F1F4F6"/>
<path d="M200.266 45.5752H209.419L195.047 87.6342H186.724L172.465 45.5752H181.877L191.03 77.5019L200.266 45.5752Z" fill="#F1F4F6"/>
<path d="M245.853 53.0201H223.538V61.9525H244.024V69.2571H223.538V80.0701H246.88V87.6342H214.928V45.5752H245.853V53.0201Z" fill="#F1F4F6"/>
<path d="M280.765 46.6556C282.32 47.3222 283.635 48.3046 284.712 49.5957C285.605 50.6622 286.309 51.8411 286.829 53.1322C287.35 54.4233 287.61 55.8968 287.61 57.5528C287.61 59.5526 287.104 61.5173 286.091 63.4469C285.078 65.3766 283.41 66.7449 281.082 67.5448C283.03 68.3237 284.402 69.4323 285.218 70.8708C286.027 72.3092 286.435 74.4985 286.435 77.4456V80.2734C286.435 82.196 286.513 83.5011 286.667 84.1818C286.9 85.2694 287.441 86.0623 288.293 86.5815V87.634H278.563C278.296 86.7008 278.106 85.95 277.994 85.3816C277.761 84.2028 277.642 82.9959 277.621 81.7609L277.564 77.8525C277.529 75.1721 277.065 73.3828 276.172 72.4917C275.278 71.6005 273.604 71.1515 271.149 71.1515H262.545V87.6411H253.935V45.582H274.103C276.988 45.6382 279.204 46.003 280.758 46.6696L280.765 46.6556ZM262.552 52.8796V64.1767H272.035C273.92 64.1767 275.334 63.9451 276.27 63.489C277.937 62.6891 278.767 61.1103 278.767 58.7527C278.767 56.2056 277.958 54.4934 276.347 53.6163C275.44 53.1252 274.082 52.8725 272.274 52.8725H262.545L262.552 52.8796Z" fill="#F1F4F6"/>
<path d="M304.094 87.6342H295.343V45.5752H304.094V87.6342Z" fill="#F1F4F6"/>
<path d="M342.967 45.5752V53.0201H330.354V87.6342H321.483V53.0201H308.813V45.5752H342.967Z" fill="#F1F4F6"/>
<path d="M355.856 45.5752H365.824L380.745 87.6342H371.192L368.406 78.9895H352.88L350.024 87.6342H340.809L355.863 45.5752H355.856ZM355.272 71.741H366.071L360.745 55.1883L355.272 71.741Z" fill="#F1F4F6"/>
<path d="M392.458 74.6527C392.732 76.5753 393.267 78.0067 394.061 78.961C395.525 80.6942 398.022 81.5572 401.568 81.5572C403.692 81.5572 405.416 81.3257 406.738 80.8696C409.25 79.9925 410.509 78.3646 410.509 75.9929C410.509 74.6035 409.897 73.53 408.666 72.7651C407.435 72.0213 405.486 71.3688 402.813 70.7934L398.247 69.797C393.759 68.8076 390.678 67.734 388.996 66.5692C386.154 64.6256 384.733 61.5943 384.733 57.4684C384.733 53.7003 386.126 50.5708 388.905 48.0798C391.684 45.5888 395.771 44.3398 401.153 44.3398C405.648 44.3398 409.489 45.5117 412.661 47.8623C415.834 50.213 417.501 53.6231 417.656 58.0929H409.186C409.032 55.5668 407.899 53.7635 405.781 52.6969C404.375 51.9952 402.623 51.6444 400.534 51.6444C398.205 51.6444 396.348 52.1005 394.962 53.0127C393.576 53.9249 392.88 55.2019 392.88 56.8369C392.88 58.3385 393.562 59.4612 394.934 60.205C395.813 60.7032 397.677 61.2785 400.534 61.9451L407.934 63.6853C411.177 64.4431 413.611 65.4676 415.229 66.7376C417.741 68.7164 419 71.5793 419 75.3263C419 79.0733 417.508 82.3572 414.533 84.8973C411.557 87.4374 407.35 88.7074 401.912 88.7074C396.474 88.7074 391.993 87.4584 388.814 84.9534C385.634 82.4554 384.044 79.0171 384.044 74.6386H392.458V74.6527Z" fill="#F1F4F6"/>
</svg>
